<?xml version="1.0" encoding="utf-8"?>
<svg viewBox="0 0 500 697.96" xmlns="http://www.w3.org/2000/svg" xmlns:bx="https://boxy-svg.com">
  <defs>
    <style bx:fonts="Yanone Kaffeesatz" bx:pinned="true">@import url(https://fonts.googleapis.com/css2?family=Yanone+Kaffeesatz%3Aital%2Cwght%400%2C200..700&amp;display=swap);</style>
    <style bx:fonts="Lobster" bx:pinned="true">@import url(https://fonts.googleapis.com/css2?family=Lobster%3Aital%2Cwght%400%2C400&amp;display=swap);</style>
    <style bx:fonts="Cinzel" bx:pinned="true">@import url(https://fonts.googleapis.com/css2?family=Cinzel%3Aital%2Cwght%400%2C400..900&amp;display=swap);</style>
    <style bx:fonts="Clicker Script" bx:pinned="true">@import url(https://fonts.googleapis.com/css2?family=Clicker+Script%3Aital%2Cwght%400%2C400&amp;display=swap);</style>
    <style bx:fonts="Climate Crisis" bx:pinned="true">@import url(https://fonts.googleapis.com/css2?family=Climate+Crisis%3Aital%2Cwght%400%2C400&amp;display=swap);</style>
    <style bx:fonts="Doppio One" bx:pinned="true">@import url(https://fonts.googleapis.com/css2?family=Doppio+One%3Aital%2Cwght%400%2C400&amp;display=swap);</style>
    <style bx:fonts="Ewert" bx:pinned="true">@import url(https://fonts.googleapis.com/css2?family=Ewert%3Aital%2Cwght%400%2C400&amp;display=swap);</style>
    <style bx:fonts="Galada" bx:pinned="true">@import url(https://fonts.googleapis.com/css2?family=Galada%3Aital%2Cwght%400%2C400&amp;display=swap);</style>
    <style bx:fonts="Monoton" bx:pinned="true">@import url(https://fonts.googleapis.com/css2?family=Monoton%3Aital%2Cwght%400%2C400&amp;display=swap);</style>
    <style bx:fonts="Ubuntu" bx:pinned="true">@import url(https://fonts.googleapis.com/css2?family=Ubuntu%3Aital%2Cwght%400%2C300%3B0%2C400%3B0%2C500%3B0%2C700%3B1%2C300%3B1%2C400%3B1%2C500%3B1%2C700&amp;display=swap);</style>
    <style bx:fonts="Ultra" bx:pinned="true">@import url(https://fonts.googleapis.com/css2?family=Ultra%3Aital%2Cwght%400%2C400&amp;display=swap);</style>
    <style bx:fonts="Vibur" bx:pinned="true">@import url(https://fonts.googleapis.com/css2?family=Vibur%3Aital%2Cwght%400%2C400&amp;display=swap);</style>
    <style bx:fonts="Coda" bx:pinned="true">@import url(https://fonts.googleapis.com/css2?family=Coda%3Aital%2Cwght%400%2C400%3B0%2C800&amp;display=swap);</style>
  </defs>
  <path id="S1" d="M 185.914 300.501 L 174.647 300.501 C 169.867 300.501 166.421 299.275 164.311 296.823 C 162.2 294.371 161.145 291.127 161.145 287.092 C 161.145 278.153 167.818 273.684 181.165 273.684 C 193.704 273.684 203.14 275.546 209.472 279.271 L 204.071 283.368 C 199.725 281.381 192.09 280.388 181.165 280.388 C 175.826 280.388 172.241 280.977 170.41 282.157 C 168.578 283.336 167.663 284.981 167.663 287.092 C 167.663 289.202 168.159 290.847 169.153 292.027 C 170.146 293.207 171.977 293.797 174.647 293.797 L 186.193 293.797 C 194.573 293.797 202.131 295.224 208.867 298.08 C 215.602 300.935 221.142 304.83 225.488 309.766 C 229.833 314.7 233.154 320.38 235.451 326.806 C 237.747 333.23 238.896 340.105 238.896 347.431 C 238.896 353.39 238.058 359.039 236.382 364.378 C 234.706 369.716 232.176 374.62 228.793 379.09 C 225.41 383.559 221.344 387.423 216.595 390.683 C 211.846 393.941 206.197 396.486 199.648 398.318 C 193.099 400.149 186.007 401.065 178.371 401.065 C 166.39 401.065 155.17 399.249 144.71 395.618 C 134.25 391.986 125.543 386.912 118.591 380.394 L 123.992 376.39 C 130.324 382.1 138.254 386.523 147.783 389.659 C 157.311 392.793 167.507 394.361 178.371 394.361 C 186.875 394.361 194.557 393.135 201.417 390.683 C 208.277 388.231 213.926 384.863 218.364 380.58 C 222.802 376.296 226.217 371.33 228.607 365.681 C 230.997 360.032 232.192 353.949 232.192 347.431 C 232.192 338.802 230.454 330.996 226.978 324.012 C 223.501 317.028 218.209 311.364 211.101 307.019 C 203.993 302.673 195.598 300.501 185.914 300.501 Z M 174.647 307.205 L 185.262 307.205 C 197.863 307.205 207.718 311.053 214.826 318.751 C 221.934 326.449 225.488 336.009 225.488 347.431 C 225.488 359.039 221.359 368.645 213.103 376.25 C 204.847 383.854 193.269 387.657 178.371 387.657 C 168.439 387.657 159.158 386.291 150.53 383.56 C 141.901 380.828 134.731 376.979 129.02 372.013 L 134.235 367.823 C 139.325 371.982 145.734 375.21 153.463 377.507 C 161.191 379.803 169.494 380.952 178.371 380.952 C 191.469 380.952 201.479 377.817 208.401 371.548 C 215.322 365.278 218.783 357.239 218.783 347.431 C 218.783 337.747 215.881 329.739 210.077 323.407 C 204.273 317.075 195.97 313.909 185.169 313.909 L 174.647 313.909 C 165.583 313.909 158.786 311.426 154.255 306.46 C 149.723 301.494 147.457 295.038 147.457 287.092 C 147.457 279.146 150.266 272.69 155.884 267.724 C 161.502 262.758 169.929 260.275 181.165 260.275 C 189.049 260.275 196.374 261.19 203.14 263.022 C 209.906 264.853 215.493 267.476 219.901 270.89 L 214.593 274.987 C 206.833 269.648 195.691 266.979 181.165 266.979 C 171.791 266.979 164.947 268.826 160.633 272.52 C 156.319 276.213 154.162 281.07 154.162 287.092 C 154.162 293.176 155.76 298.049 158.957 301.711 C 162.153 305.373 167.383 307.205 174.647 307.205 Z M 174.647 320.614 L 184.89 320.614 C 193.952 320.614 200.75 323.128 205.282 328.156 C 209.813 333.184 212.079 339.609 212.079 347.431 C 212.079 355.377 209.27 361.833 203.652 366.799 C 198.034 371.765 189.607 374.248 178.371 374.248 C 170.487 374.248 163.147 373.332 156.35 371.501 C 149.552 369.669 143.95 367.047 139.542 363.633 L 144.85 359.536 C 152.609 364.874 163.783 367.544 178.371 367.544 C 187.745 367.544 194.589 365.697 198.903 362.003 C 203.217 358.309 205.375 353.452 205.375 347.431 C 205.375 341.409 203.761 336.552 200.533 332.858 C 197.305 329.164 192.059 327.318 184.796 327.318 L 174.647 327.318 C 161.921 327.318 151.973 323.515 144.803 315.911 C 137.633 308.307 134.049 298.7 134.049 287.092 C 134.049 275.484 138.177 265.877 146.433 258.273 C 154.689 250.668 166.266 246.866 181.165 246.866 C 191.097 246.866 200.362 248.232 208.96 250.964 C 217.557 253.695 224.711 257.544 230.423 262.51 L 225.208 266.7 C 220.118 262.54 213.724 259.312 206.027 257.016 C 198.329 254.719 190.041 253.571 181.165 253.571 C 168.067 253.571 158.057 256.705 151.135 262.975 C 144.213 269.245 140.753 277.284 140.753 287.092 C 140.753 296.838 143.67 304.861 149.506 311.163 C 155.341 317.463 163.721 320.614 174.647 320.614 Z M 174.647 334.022 L 184.89 334.022 C 189.669 334.022 193.114 335.263 195.225 337.747 C 197.335 340.23 198.391 343.458 198.391 347.431 C 198.391 356.37 191.717 360.84 178.371 360.84 C 165.769 360.84 156.303 358.977 149.971 355.253 L 155.372 351.156 C 159.717 353.142 167.383 354.135 178.371 354.135 C 183.709 354.135 187.294 353.545 189.126 352.366 C 190.957 351.186 191.873 349.541 191.873 347.431 C 191.873 345.382 191.361 343.752 190.337 342.542 C 189.312 341.332 187.434 340.727 184.703 340.727 L 174.647 340.727 C 166.08 340.727 158.336 339.33 151.415 336.536 C 144.493 333.742 138.813 329.894 134.375 324.99 C 129.936 320.086 126.537 314.406 124.178 307.95 C 121.819 301.494 120.64 294.541 120.64 287.092 C 120.64 281.132 121.478 275.483 123.154 270.145 C 124.83 264.806 127.359 259.902 130.743 255.433 C 134.126 250.963 138.192 247.099 142.941 243.84 C 147.689 240.581 153.338 238.036 159.888 236.205 C 166.437 234.373 173.529 233.458 181.165 233.458 C 193.145 233.458 204.35 235.273 214.78 238.905 C 225.208 242.536 233.899 247.611 240.852 254.129 L 235.451 258.133 C 229.119 252.422 221.204 247.999 211.707 244.864 C 202.209 241.729 192.028 240.162 181.165 240.162 C 172.66 240.162 164.978 241.388 158.119 243.84 C 151.259 246.292 145.61 249.659 141.172 253.943 C 136.733 258.226 133.319 263.192 130.929 268.842 C 128.539 274.49 127.344 280.574 127.344 287.092 C 127.344 295.844 129.113 303.728 132.652 310.744 C 136.19 317.758 141.59 323.392 148.854 327.644 C 156.116 331.896 164.714 334.022 174.647 334.022 Z M 317.877 300.501 L 306.61 300.501 C 301.83 300.501 298.384 299.275 296.274 296.823 C 294.163 294.371 293.108 291.127 293.108 287.092 C 293.108 278.153 299.781 273.684 313.128 273.684 C 325.667 273.684 335.103 275.546 341.435 279.271 L 336.034 283.368 C 331.688 281.381 324.053 280.388 313.128 280.388 C 307.789 280.388 304.204 280.977 302.373 282.157 C 300.541 283.336 299.626 284.981 299.626 287.092 C 299.626 289.202 300.122 290.847 301.116 292.027 C 302.109 293.207 303.94 293.797 306.61 293.797 L 318.156 293.797 C 326.536 293.797 334.093 295.224 340.829 298.08 C 347.564 300.935 353.104 304.83 357.45 309.766 C 361.796 314.7 365.117 320.38 367.414 326.806 C 369.71 333.23 370.859 340.105 370.859 347.431 C 370.859 353.39 370.021 359.039 368.345 364.378 C 366.669 369.716 364.139 374.62 360.756 379.09 C 357.372 383.559 353.306 387.423 348.558 390.683 C 343.809 393.941 338.16 396.486 331.611 398.318 C 325.061 400.149 317.969 401.065 310.334 401.065 C 298.353 401.065 287.133 399.249 276.673 395.618 C 266.213 391.986 257.506 386.912 250.554 380.394 L 255.955 376.39 C 262.287 382.1 270.217 386.523 279.746 389.659 C 289.274 392.793 299.47 394.361 310.334 394.361 C 318.838 394.361 326.52 393.135 333.38 390.683 C 340.239 388.231 345.888 384.863 350.327 380.58 C 354.765 376.296 358.18 371.33 360.57 365.681 C 362.96 360.032 364.155 353.949 364.155 347.431 C 364.155 338.802 362.416 330.996 358.94 324.012 C 355.464 317.028 350.172 311.364 343.064 307.019 C 335.956 302.673 327.56 300.501 317.877 300.501 Z M 306.61 307.205 L 317.225 307.205 C 329.826 307.205 339.681 311.053 346.789 318.751 C 353.896 326.449 357.45 336.009 357.45 347.431 C 357.45 359.039 353.322 368.645 345.066 376.25 C 336.81 383.854 325.232 387.657 310.334 387.657 C 300.402 387.657 291.121 386.291 282.493 383.56 C 273.864 380.828 266.694 376.979 260.983 372.013 L 266.198 367.823 C 271.288 371.982 277.697 375.21 285.426 377.507 C 293.154 379.803 301.457 380.952 310.334 380.952 C 323.432 380.952 333.442 377.817 340.364 371.548 C 347.285 365.278 350.746 357.239 350.746 347.431 C 350.746 337.747 347.844 329.739 342.04 323.407 C 336.236 317.075 327.933 313.909 317.132 313.909 L 306.61 313.909 C 297.546 313.909 290.749 311.426 286.217 306.46 C 281.685 301.494 279.42 295.038 279.42 287.092 C 279.42 279.146 282.229 272.69 287.847 267.724 C 293.465 262.758 301.892 260.275 313.128 260.275 C 321.011 260.275 328.336 261.19 335.103 263.022 C 341.869 264.853 347.456 267.476 351.864 270.89 L 346.556 274.987 C 338.796 269.648 327.654 266.979 313.128 266.979 C 303.754 266.979 296.91 268.826 292.596 272.52 C 288.281 276.213 286.124 281.07 286.124 287.092 C 286.124 293.176 287.722 298.049 290.92 301.711 C 294.116 305.373 299.346 307.205 306.61 307.205 Z M 306.61 320.614 L 316.852 320.614 C 325.915 320.614 332.712 323.128 337.244 328.156 C 341.776 333.184 344.042 339.609 344.042 347.431 C 344.042 355.377 341.233 361.833 335.615 366.799 C 329.997 371.765 321.57 374.248 310.334 374.248 C 302.45 374.248 295.11 373.332 288.312 371.501 C 281.514 369.669 275.912 367.047 271.505 363.633 L 276.813 359.536 C 284.572 364.874 295.746 367.544 310.334 367.544 C 319.708 367.544 326.552 365.697 330.866 362.003 C 335.18 358.309 337.338 353.452 337.338 347.431 C 337.338 341.409 335.724 336.552 332.496 332.858 C 329.268 329.164 324.022 327.318 316.759 327.318 L 306.61 327.318 C 293.884 327.318 283.936 323.515 276.766 315.911 C 269.596 308.307 266.011 298.7 266.011 287.092 C 266.011 275.484 270.139 265.877 278.396 258.273 C 286.652 250.668 298.229 246.866 313.128 246.866 C 323.06 246.866 332.325 248.232 340.923 250.964 C 349.52 253.695 356.674 257.544 362.386 262.51 L 357.171 266.7 C 352.081 262.54 345.687 259.312 337.989 257.016 C 330.291 254.719 322.004 253.571 313.128 253.571 C 300.029 253.571 290.019 256.705 283.098 262.975 C 276.176 269.245 272.716 277.284 272.716 287.092 C 272.716 296.838 275.633 304.861 281.468 311.163 C 287.303 317.463 295.684 320.614 306.61 320.614 Z M 306.61 334.022 L 316.852 334.022 C 321.632 334.022 325.077 335.263 327.188 337.747 C 329.298 340.23 330.354 343.458 330.354 347.431 C 330.354 356.37 323.68 360.84 310.334 360.84 C 297.732 360.84 288.266 358.977 281.934 355.253 L 287.335 351.156 C 291.68 353.142 299.346 354.135 310.334 354.135 C 315.672 354.135 319.257 353.545 321.089 352.366 C 322.92 351.186 323.836 349.541 323.836 347.431 C 323.836 345.382 323.323 343.752 322.299 342.542 C 321.275 341.332 319.397 340.727 316.666 340.727 L 306.61 340.727 C 298.043 340.727 290.299 339.33 283.377 336.536 C 276.455 333.742 270.775 329.894 266.337 324.99 C 261.898 320.086 258.499 314.406 256.141 307.95 C 253.782 301.494 252.603 294.541 252.603 287.092 C 252.603 281.132 253.441 275.483 255.117 270.145 C 256.793 264.806 259.322 259.902 262.706 255.433 C 266.089 250.963 270.155 247.099 274.904 243.84 C 279.652 240.581 285.301 238.036 291.851 236.205 C 298.399 234.373 305.492 233.458 313.128 233.458 C 325.108 233.458 336.313 235.273 346.742 238.905 C 357.171 242.536 365.862 247.611 372.814 254.129 L 367.414 258.133 C 361.082 252.422 353.167 247.999 343.669 244.864 C 334.171 241.729 323.991 240.162 313.128 240.162 C 304.623 240.162 296.941 241.388 290.082 243.84 C 283.222 246.292 277.573 249.659 273.135 253.943 C 268.696 258.226 265.282 263.192 262.892 268.842 C 260.502 274.49 259.307 280.574 259.307 287.092 C 259.307 295.844 261.076 303.728 264.615 310.744 C 268.153 317.758 273.553 323.392 280.817 327.644 C 288.079 331.896 296.677 334.022 306.61 334.022 Z" style="text-transform: uppercase; text-wrap-mode: nowrap; fill-rule: nonzero; stroke: rgb(255, 255, 255); paint-order: fill; stroke-width: 4px; fill: none;"/>
</svg>